<svg width="120" height="107" viewBox="0 0 120 107" fill="none" xmlns="http://www.w3.org/2000/svg">
<path d="M51.4163 61.3508C51.7453 61.8387 52.5055 61.5323 52.4034 60.9423L48.4888 38.6575C48.4434 38.3965 48.2165 38.2036 47.9555 38.2036H36.6202C36.1777 38.2036 35.9167 38.6915 36.1663 39.0546L51.4163 61.3508Z" fill="#EAFC52"/>
<path d="M25.1146 81.0829C25.16 81.2531 25.1146 81.4347 25.0011 81.5708L21.6765 85.4514C21.4383 85.7237 21.529 86.1549 21.8694 86.3024L44.5854 96.6392C44.8351 96.7527 45.1414 96.6619 45.2776 96.4236L57.01 76.601C57.1802 76.3173 57.0554 75.9429 56.7377 75.8181L36.0641 67.6145C35.7918 67.501 35.6556 67.1946 35.7464 66.9223L41.4424 51.0937C41.4992 50.9235 41.4765 50.742 41.3743 50.5945L33.2615 39.0322C33.0119 38.6805 32.4786 38.7372 32.3084 39.1344L21.2681 65.7082C21.2227 65.8217 21.2113 65.9352 21.2454 66.0486L25.1146 81.0829Z" fill="#EAFC52"/>
<path d="M55.7053 84.577C55.5238 84.1685 54.9564 84.1345 54.7295 84.5202L46.2309 99.2936C46.0947 99.5432 45.7883 99.634 45.5274 99.5205L18.4543 86.9371C18.1479 86.8009 18.0458 86.4265 18.2273 86.1428L22.1646 80.0497C22.2554 79.9022 22.2781 79.7206 22.21 79.5504L19.6797 73.1169C19.5549 72.7992 19.1804 72.6743 18.8854 72.8559L1.20734 83.6692C0.912327 83.8508 0.855591 84.2593 1.09387 84.5089L19.7478 104.445C19.8385 104.536 19.9634 104.604 20.0882 104.615L42.4411 106.998C42.5886 107.009 42.7361 106.964 42.8496 106.873L59.0639 93.3479C59.2455 93.1891 59.3136 92.9395 59.2114 92.7125L55.7053 84.577Z" fill="#EAFC52"/>
<path d="M69.3439 61.2481L84.5938 38.9633C84.8435 38.6002 84.5825 38.1123 84.14 38.1123H72.8047C72.5437 38.1123 72.3167 38.3052 72.2714 38.5662L68.3568 60.851C68.2547 61.4183 69.0149 61.7247 69.3439 61.2481Z" fill="#EAFC52"/>
<path d="M79.3063 50.98L85.0023 66.8085C85.1044 67.0809 84.9682 67.3872 84.6846 67.5007L64.011 75.7043C63.6933 75.8291 63.5685 76.2036 63.7387 76.4872L75.4824 96.3098C75.6299 96.5481 75.925 96.6389 76.1746 96.5254L98.8906 86.1886C99.2196 86.0411 99.3104 85.61 99.0835 85.3376L95.7589 81.4571C95.6454 81.3209 95.6001 81.1394 95.6454 80.9692L99.5146 65.9349C99.5487 65.8214 99.5374 65.6966 99.492 65.5945L88.4403 39.0206C88.2701 38.6235 87.7368 38.5667 87.4872 38.9185L79.3743 50.4807C79.2722 50.6282 79.2382 50.8098 79.3063 50.98Z" fill="#EAFC52"/>
<path d="M119.564 83.5561L101.886 72.7428C101.591 72.5612 101.217 72.6974 101.092 73.0037L98.5615 79.4373C98.4934 79.5962 98.5161 79.789 98.6069 79.9365L102.544 86.0297C102.726 86.3134 102.612 86.6765 102.317 86.824L75.2328 99.4074C74.9718 99.5322 74.6654 99.4301 74.5293 99.1805L66.0306 84.4071C65.8037 84.0213 65.2364 84.0554 65.0548 84.4639L61.56 92.5994C61.4693 92.8264 61.526 93.076 61.7075 93.2348L77.9219 106.76C78.0354 106.851 78.1829 106.896 78.3304 106.885L100.683 104.502C100.808 104.491 100.933 104.423 101.024 104.332L119.678 84.3958C119.916 84.1462 119.859 83.7377 119.564 83.5561Z" fill="#EAFC52"/>
<path d="M42.9629 55.1213L39.4341 65.6056C39.3434 65.8779 39.4795 66.1843 39.7518 66.2864L59.6312 74.2064C59.9943 74.3539 60.3801 74.0816 60.3801 73.6958C60.3801 74.0816 60.7658 74.3426 61.1289 74.2064L81.0083 66.2864C81.2806 66.1843 81.4168 65.8779 81.326 65.6056L77.7972 55.1213C77.661 54.7015 77.1164 54.6107 76.8441 54.9625L67.6646 66.9105C67.3469 67.319 66.6888 67.1034 66.6888 66.5814L66.564 51.3656C66.564 51.0252 66.2576 50.7755 65.9286 50.8323L60.8339 51.7173C60.573 51.7627 60.3801 51.9896 60.3801 52.2506C60.3801 51.9896 60.1872 51.7627 59.9262 51.7173L54.8316 50.8323C54.5025 50.7755 54.1961 51.0252 54.1961 51.3656L54.0713 66.5814C54.0713 67.1034 53.4132 67.319 53.0955 66.9105L43.9161 54.9625C43.6437 54.6107 43.0991 54.7015 42.9629 55.1213Z" fill="#EAFC52"/>
<path d="M54.7634 49.2325L59.1772 49.9133C59.529 49.97 59.8354 49.6863 59.8013 49.3346L59.4609 44.569C59.4496 44.3988 59.3588 44.2399 59.2113 44.1492L52.0742 39.463C51.6431 39.1793 51.0871 39.6105 51.2573 40.0984L54.3209 48.8807C54.4003 49.0623 54.5592 49.1984 54.7634 49.2325Z" fill="#EAFC52"/>
<path d="M61.5034 49.9129L65.9173 49.2321C66.1215 49.198 66.2804 49.0619 66.3484 48.869L69.412 40.0867C69.5822 39.5988 69.0376 39.1676 68.5951 39.4513L61.458 44.1374C61.3105 44.2282 61.2197 44.3871 61.2084 44.5573L60.868 49.3229C60.8453 49.686 61.1517 49.9696 61.5034 49.9129Z" fill="#EAFC52"/>
<path d="M51.2121 35.6618L52.4148 37.7042C52.6077 38.0332 52.9027 38.3056 53.2544 38.4644L60.3801 41.7776L67.5058 38.4644C67.8576 38.3056 68.1526 38.0332 68.3455 37.7042L69.5482 35.6618C69.7184 35.3781 69.8092 35.0491 69.8092 34.72L69.9794 19.1297C69.9794 18.7212 69.8659 18.3355 69.6277 18.0064L68.1866 15.9867C67.8349 15.4874 67.2449 15.1924 66.6321 15.1924H64.9869C64.828 14.9995 64.6805 14.818 64.533 14.6364C63.909 13.8535 63.3303 13.1387 62.5927 12.6621V11.414H66.2123C66.7456 11.414 67.1881 10.9828 67.1881 10.4382C67.1881 9.90489 66.757 9.46237 66.2123 9.46237H62.5927V1.12258C62.5927 0.884299 62.3999 0.691406 62.1616 0.691406H58.576C58.3377 0.691406 58.1449 0.884299 58.1449 1.12258V9.45102H54.5253C53.992 9.45102 53.5495 9.8822 53.5495 10.4268C53.5495 10.9601 53.9806 11.4026 54.5253 11.4026H58.1449V12.5827C57.3166 13.0479 56.7492 13.7854 56.0798 14.6705C55.955 14.8293 55.8301 14.9995 55.694 15.1697H54.0033C53.3679 15.1697 52.7665 15.4874 52.4148 16.0207L51.0872 18.0177C50.8716 18.3355 50.7695 18.7099 50.7695 19.0957L50.9397 34.6973C50.9511 35.0491 51.0419 35.3781 51.2121 35.6618ZM54.0374 17.1327H54.7749C55.3649 18.1085 58.0087 19.0049 60.3801 19.0049C62.7176 19.0049 65.3954 18.0972 65.9967 17.1327H66.6095L68.0278 19.107L67.8689 34.6746L66.6889 36.7057L60.3801 39.6331L54.0941 36.717L52.9027 34.6973L52.7325 19.1184L54.0374 17.1327Z" fill="#EAFC52"/>
<path d="M63.5345 84.2484L64.5557 81.2983C64.6011 81.1735 64.5897 81.026 64.5443 80.9012L63.3756 78.246C63.2849 78.0532 63.092 77.917 62.8764 77.917H57.8271C57.6002 77.917 57.4073 78.0532 57.3165 78.2574L56.2386 80.8785C56.1819 81.0146 56.1819 81.1621 56.2386 81.2983L59.983 90.4097C60.1645 90.8635 60.8113 90.8635 60.9928 90.4097L63.5345 84.2711C63.5231 84.2711 63.5345 84.2598 63.5345 84.2484Z" fill="#EAFC52"/>
<path d="M62.3885 29.2282C62.4793 29.2282 62.57 29.2169 62.6608 29.1829L66.8023 27.6397C67.2108 27.4922 67.4151 27.0383 67.2562 26.6299C67.1087 26.2214 66.6548 26.0171 66.2464 26.176L62.1048 27.7191C61.6964 27.8666 61.4921 28.3205 61.651 28.729C61.7758 29.0353 62.0708 29.2282 62.3885 29.2282Z" fill="#EAFC52"/>
<path d="M53.9805 27.6285L58.122 29.1717C58.2128 29.2057 58.3035 29.217 58.3943 29.217C58.712 29.217 59.007 29.0241 59.1205 28.7064C59.268 28.298 59.0638 27.8554 58.6666 27.6966L54.5251 26.1534C54.1166 26.0059 53.6741 26.2102 53.5153 26.6073C53.3678 27.0271 53.572 27.481 53.9805 27.6285Z" fill="#EAFC52"/>
</svg>
