<svg width="238" height="60" viewBox="0 0 238 60" fill="none" xmlns="http://www.w3.org/2000/svg">
<path d="M0.231699 44.0688V39.158C3.79892 41.1559 9.39877 43.119 13.1976 43.119C15.0971 43.119 17.3555 42.6268 17.3555 41.3818C17.3497 37.3223 6.10352e-05 33.7551 6.10352e-05 27.8946C6.10352e-05 22.5264 6.84496 20.7254 14.1126 20.7254C16.8633 20.7254 19.5156 20.986 21.5424 21.4146V26.3253C18.3052 24.1653 12.966 22.2311 9.72306 22.2311C8.02052 22.2311 5.89524 22.7523 5.89524 24.0321C5.89524 27.2403 22.33 29.8288 22.33 36.6042C22.33 42.4299 15.6819 44.7926 7.95682 44.7926C5.43776 44.7868 2.78551 44.5262 0.231699 44.0688Z" fill="#EAFC52"/>
<path d="M24.9476 21.4088H33.136V33.3903C34.022 32.2437 35.3597 31.9194 36.8653 31.9194H43.0211V21.4088H51.2037V44.3931H43.0211V32.9039H36.9985C34.2478 32.9039 33.136 33.7899 33.136 37.4903V44.3989H24.9476V21.4088Z" fill="#EAFC52"/>
<path d="M53.8272 32.869C53.8272 24.7791 61.1933 20.7254 68.5884 20.7254C75.9197 20.7254 83.2858 24.7501 83.2858 32.8343C83.2858 40.8895 75.9197 44.8795 68.5536 44.8795C61.1875 44.8795 53.8272 40.8953 53.8272 32.869ZM75.6649 35.4923C75.6649 29.2092 72.4278 21.7099 66.7584 21.7099C63.0638 21.7099 61.3265 25.7346 61.3265 30.35C61.3265 36.6042 64.4999 43.9066 70.2967 43.9066C73.9624 43.9066 75.6649 40.0093 75.6649 35.4923Z" fill="#EAFC52"/>
<path d="M152.742 32.9733C152.742 24.3911 161.029 20.627 170.618 20.627C173.207 20.627 175.888 20.8876 178.512 21.4146V26.3253C175.008 23.2445 171.638 21.7736 168.817 21.7736C164.104 21.7736 160.861 25.7636 160.861 32.8401C160.861 40.3394 164.266 44.0398 167.572 44.0398C170.647 44.0398 173.63 40.5363 173.497 34.8438H168.65V33.8593H181.679C182.067 41.2949 175.095 44.8911 167.897 44.8911C160.467 44.8853 152.742 40.9938 152.742 32.9733Z" fill="#EAFC52"/>
<path d="M184.303 35.5903V21.4141H192.491V39.1923C192.491 42.3657 194.715 44.1378 196.973 44.1378C199.197 44.1378 201.426 42.3715 201.426 39.1923V21.4141H209.615V35.5903C209.615 42.4642 203.297 44.9196 196.979 44.9196C190.62 44.9196 184.303 42.4642 184.303 35.5903Z" fill="#EAFC52"/>
<path d="M212.232 44.3935V21.4092H220.646L236.919 42.9515V21.4092H237.898V44.3935H229.061L213.217 23.604V44.3935H212.232Z" fill="#EAFC52"/>
<path d="M115.865 8.39642H115.489L114.823 9.40404L114.91 17.355L115.518 18.3858L118.726 19.8741L121.946 18.38L122.548 17.3434L122.629 9.39825L121.905 8.39062H121.592C121.28 8.88286 119.919 9.34614 118.726 9.34614C117.515 9.35193 116.166 8.89444 115.865 8.39642ZM119.612 13.7936L121.725 13.006C121.928 12.9307 122.16 13.035 122.241 13.2377C122.316 13.4461 122.212 13.672 122.009 13.753L119.896 14.5406C119.849 14.558 119.803 14.5638 119.757 14.5638C119.594 14.5638 119.444 14.4653 119.386 14.3032C119.305 14.1005 119.409 13.8747 119.612 13.7936ZM118.083 14.309C118.025 14.4711 117.869 14.5696 117.712 14.5696C117.666 14.5696 117.62 14.5638 117.573 14.5464L115.46 13.7588C115.251 13.6836 115.147 13.4519 115.228 13.2434C115.303 13.035 115.535 12.9307 115.743 13.0118L117.857 13.7994C118.054 13.8747 118.158 14.1005 118.083 14.309Z" fill="#EAFC52"/>
<path d="M127.679 54.1395L119.404 47.2367C119.311 47.1556 119.276 47.0282 119.328 46.9124L121.118 42.7603C121.21 42.5518 121.5 42.5344 121.616 42.7313L125.953 50.2711C126.023 50.3985 126.179 50.4449 126.312 50.387L140.13 43.9648C140.286 43.8953 140.338 43.7042 140.245 43.5594L138.236 40.4497C138.19 40.3744 138.178 40.2818 138.213 40.1949L139.504 36.9114C139.568 36.7493 139.759 36.6856 139.909 36.7782L144.756 39.7432C145.289 37.6353 145.573 35.4232 145.573 33.1473C145.573 18.7973 134.315 7.08227 120.157 6.34103C120.406 6.56109 120.626 6.83326 120.851 7.12281C120.927 7.21547 121.002 7.31391 121.083 7.40656H121.923C122.235 7.40656 122.531 7.55713 122.716 7.81193L123.452 8.84272C123.573 9.01066 123.637 9.21334 123.631 9.41602L123.544 17.3728C123.544 17.5407 123.498 17.7087 123.411 17.8534L122.797 18.8958C122.699 19.0637 122.548 19.2027 122.369 19.2838L118.732 20.9748L115.095 19.2838C114.916 19.2027 114.765 19.0637 114.667 18.8958L114.053 17.8534C113.966 17.7087 113.92 17.5407 113.92 17.3728L113.833 9.41023C113.833 9.21334 113.885 9.02803 113.995 8.8601L114.673 7.84088C114.852 7.56871 115.159 7.40656 115.483 7.40656H116.346C116.416 7.3197 116.479 7.23283 116.543 7.15176C116.78 6.83905 116.995 6.56688 117.238 6.35261C103.108 7.1286 91.8851 18.8321 91.8851 33.1589C91.8851 35.4521 92.1747 37.6758 92.7133 39.8011L97.5487 36.8419C97.6993 36.7493 97.8904 36.8188 97.9541 36.9751L99.2454 40.2586C99.2802 40.3397 99.2686 40.4381 99.2223 40.5134L97.2128 43.6231C97.1202 43.7679 97.1781 43.9532 97.3286 44.0285L111.146 50.4507C111.279 50.5144 111.435 50.4623 111.505 50.3349L115.842 42.795C115.958 42.5981 116.248 42.6155 116.34 42.824L118.13 46.9761C118.176 47.0919 118.147 47.2193 118.054 47.3004L109.779 54.2032C109.721 54.2495 109.646 54.2727 109.571 54.2669L101.064 53.3577C105.783 57.4867 111.962 59.9999 118.726 59.9999C125.531 59.9999 131.733 57.4635 136.464 53.294L127.887 54.209C127.812 54.209 127.737 54.1858 127.679 54.1395ZM133.047 19.5676L138.688 33.1299C138.711 33.1879 138.717 33.2458 138.699 33.3037L136.724 40.9767C136.701 41.0635 136.724 41.1562 136.782 41.2257L138.479 43.2062C138.601 43.3452 138.554 43.5652 138.381 43.6405L126.787 48.9161C126.66 48.974 126.503 48.9277 126.434 48.806L120.44 38.6893C120.353 38.5445 120.417 38.3534 120.579 38.2897L131.13 34.1028C131.269 34.0449 131.339 33.8886 131.293 33.7496L128.385 25.6712C128.357 25.5843 128.368 25.4917 128.42 25.4164L132.561 19.5154C132.688 19.3301 132.96 19.3649 133.047 19.5676ZM124.795 19.3301C124.818 19.1969 124.934 19.0985 125.067 19.0985H130.852C131.078 19.0985 131.211 19.3475 131.084 19.5328L123.301 30.9062C123.133 31.1552 122.745 30.9931 122.797 30.6978L124.795 19.3301ZM119.149 22.3935C119.155 22.3067 119.201 22.2256 119.276 22.1793L122.919 19.7876C123.139 19.6428 123.423 19.8629 123.336 20.1119L121.772 24.5941C121.737 24.6925 121.651 24.762 121.552 24.7794L119.299 25.1269C119.12 25.1558 118.964 25.011 118.981 24.8315L119.149 22.3935ZM118.726 26.314C118.726 26.1808 118.825 26.065 118.958 26.0418L121.558 25.5901C121.726 25.5612 121.882 25.6886 121.882 25.8623L121.946 33.628C121.946 33.8944 122.282 34.0044 122.444 33.7959L127.129 27.698C127.262 27.5185 127.546 27.5649 127.615 27.7791L129.416 33.1299C129.463 33.2689 129.393 33.4253 129.254 33.4774L119.108 37.5195C118.923 37.5948 118.726 37.4558 118.726 37.2589C118.726 37.4558 118.529 37.589 118.344 37.5195L108.198 33.4774C108.059 33.4253 107.99 33.2689 108.036 33.1299L109.837 27.7791C109.907 27.5649 110.185 27.5185 110.324 27.698L115.008 33.7959C115.171 34.0044 115.506 33.8944 115.506 33.628L115.57 25.8623C115.57 25.6886 115.726 25.5612 115.894 25.5901L118.495 26.0418C118.628 26.065 118.726 26.1808 118.726 26.314ZM114.493 19.7876L118.136 22.1793C118.211 22.2256 118.257 22.3067 118.263 22.3935L118.437 24.8257C118.448 25.0052 118.292 25.15 118.118 25.1211L115.865 24.7736C115.761 24.7562 115.68 24.6867 115.645 24.5883L114.082 20.1061C113.989 19.8629 114.273 19.6428 114.493 19.7876ZM106.6 19.1564H112.385C112.518 19.1564 112.634 19.2548 112.657 19.388L114.655 30.7614C114.707 31.0568 114.319 31.2131 114.151 30.9699L106.368 19.5965C106.241 19.4054 106.374 19.1564 106.6 19.1564ZM111.018 48.8639C110.943 48.9856 110.793 49.0319 110.665 48.974L99.0717 43.6984C98.9038 43.6231 98.8517 43.4031 98.9733 43.2641L100.67 41.2836C100.728 41.2141 100.751 41.1215 100.728 41.0346L98.7532 33.3616C98.7358 33.3037 98.7416 33.24 98.7648 33.1879L104.405 19.6255C104.492 19.4228 104.764 19.3938 104.892 19.5733L109.032 25.4743C109.084 25.5496 109.096 25.6423 109.067 25.7291L106.16 33.8075C106.108 33.9465 106.177 34.1086 106.322 34.1607L116.873 38.3476C117.035 38.4113 117.099 38.6024 117.012 38.7472L111.018 48.8639ZM118.518 45.7948L116.607 41.1446C116.578 41.0751 116.578 40.9998 116.607 40.9304L117.157 39.5926C117.197 39.4884 117.302 39.4189 117.417 39.4189H119.994C120.104 39.4189 120.203 39.4826 120.249 39.5869L120.846 40.9361C120.875 40.9998 120.875 41.0751 120.851 41.1388L120.33 42.6445C120.33 42.6503 120.324 42.6561 120.324 42.6618L119.027 45.7948C118.94 46.0264 118.616 46.0264 118.518 45.7948Z" fill="#EAFC52"/>
<path d="M114.151 30.9641C114.319 31.2132 114.707 31.0568 114.655 30.7557L112.657 19.3823C112.634 19.2491 112.518 19.1506 112.385 19.1506H106.599C106.374 19.1506 106.24 19.3996 106.368 19.5849L114.151 30.9641Z" fill="black"/>
<path d="M116.873 38.3414L106.321 34.1545C106.182 34.0966 106.113 33.9402 106.159 33.8013L109.066 25.7229C109.095 25.636 109.084 25.5434 109.032 25.4681L104.891 19.5671C104.764 19.3876 104.492 19.4166 104.405 19.6192L98.7643 33.1816C98.7411 33.2396 98.7353 33.2975 98.7527 33.3554L100.727 41.0284C100.751 41.1152 100.727 41.2079 100.67 41.2774L98.9728 43.2579C98.8512 43.3969 98.8975 43.6169 99.0712 43.6922L110.665 48.9678C110.792 49.0257 110.948 48.9793 111.018 48.8577L117.012 38.7409C117.098 38.5962 117.029 38.4051 116.873 38.3414Z" fill="black"/>
<path d="M92.7133 39.7891L88.5265 42.3545C88.3759 42.4471 88.347 42.6556 88.4686 42.783L97.9889 52.9577C98.0352 53.004 98.0989 53.0387 98.1626 53.0445L101.07 53.3573C97.0392 49.8306 94.0742 45.1283 92.7133 39.7891Z" fill="#EAFC52"/>
<path d="M109.773 54.197L118.049 47.2942C118.141 47.2132 118.176 47.0858 118.124 46.97L116.335 42.8178C116.242 42.6094 115.952 42.592 115.836 42.7889L111.499 50.3287C111.43 50.4561 111.273 50.5024 111.14 50.4445L97.3228 44.0224C97.1665 43.9529 97.1144 43.7618 97.207 43.617L99.2165 40.5073C99.2628 40.432 99.2744 40.3393 99.2396 40.2524L97.9483 36.969C97.8846 36.8068 97.6935 36.7431 97.5429 36.8358L92.7075 39.795C94.0683 45.14 97.0333 49.8365 101.058 53.3574L109.565 54.2665C109.64 54.2665 109.715 54.2434 109.773 54.197Z" fill="black"/>
<path d="M123.307 30.9063L131.09 19.5329C131.217 19.3475 131.084 19.0985 130.858 19.0985H125.073C124.94 19.0985 124.824 19.197 124.801 19.3302L122.803 30.7036C122.745 30.9989 123.133 31.1553 123.307 30.9063Z" fill="black"/>
<path d="M128.385 25.6712L131.293 33.7496C131.345 33.8886 131.275 34.0449 131.13 34.1028L120.579 38.2897C120.417 38.3534 120.353 38.5445 120.44 38.6893L126.434 48.806C126.509 48.9277 126.66 48.974 126.787 48.9161L138.381 43.6405C138.549 43.5652 138.601 43.3452 138.479 43.2062L136.782 41.2257C136.724 41.1562 136.701 41.0635 136.724 40.9767L138.699 33.3037C138.717 33.2458 138.711 33.1821 138.688 33.1299L133.047 19.5676C132.96 19.3649 132.688 19.3359 132.561 19.5154L128.42 25.4164C128.368 25.4917 128.357 25.5843 128.385 25.6712Z" fill="black"/>
<path d="M148.932 42.2913L144.756 39.7375C143.413 45.071 140.465 49.7617 136.47 53.2883L139.301 52.9872C139.365 52.9814 139.429 52.9467 139.475 52.9003L148.995 42.7256C149.111 42.5925 149.088 42.384 148.932 42.2913Z" fill="#EAFC52"/>
<path d="M144.756 39.7375L139.91 36.7721C139.759 36.6795 139.568 36.749 139.504 36.9053L138.213 40.1888C138.178 40.2699 138.19 40.3683 138.236 40.4436L140.245 43.5533C140.338 43.6981 140.28 43.8834 140.13 43.9587L126.312 50.3809C126.179 50.4446 126.023 50.3924 125.953 50.265L121.61 42.731C121.494 42.5341 121.205 42.5515 121.112 42.76L119.323 46.9121C119.276 47.0279 119.305 47.1553 119.398 47.2364L127.673 54.1392C127.731 54.1855 127.806 54.2087 127.882 54.2029L136.458 53.2879C140.465 49.7612 143.413 45.071 144.756 39.7375Z" fill="black"/>
<path d="M115.57 25.8623L115.506 33.628C115.506 33.8944 115.171 34.0044 115.008 33.7959L110.324 27.698C110.19 27.5185 109.907 27.5649 109.837 27.7791L108.036 33.1299C107.99 33.2689 108.059 33.4253 108.198 33.4774L118.344 37.5195C118.529 37.5948 118.726 37.4558 118.726 37.2589C118.726 37.4558 118.923 37.589 119.108 37.5195L129.254 33.4774C129.393 33.4253 129.463 33.2689 129.416 33.1299L127.615 27.7791C127.546 27.5649 127.268 27.5185 127.129 27.698L122.444 33.7959C122.282 34.0044 121.946 33.8944 121.946 33.628L121.882 25.8623C121.882 25.6886 121.726 25.5612 121.558 25.5901L118.958 26.0418C118.825 26.065 118.726 26.1808 118.726 26.314C118.726 26.1808 118.628 26.065 118.495 26.0418L115.894 25.5901C115.732 25.5612 115.576 25.6886 115.57 25.8623Z" fill="black"/>
<path d="M115.639 24.5941C115.674 24.6926 115.761 24.7621 115.859 24.7794L118.112 25.1269C118.292 25.1559 118.448 25.0111 118.431 24.8316L118.257 22.3994C118.251 22.3125 118.205 22.2314 118.13 22.1851L114.487 19.7934C114.267 19.6487 113.983 19.8687 114.07 20.1177L115.639 24.5941Z" fill="black"/>
<path d="M119.299 25.1208L121.552 24.7733C121.656 24.7559 121.737 24.6864 121.772 24.588L123.336 20.1058C123.423 19.8568 123.145 19.6367 122.919 19.7815L119.276 22.1732C119.201 22.2195 119.155 22.3006 119.149 22.3874L118.975 24.8196C118.964 25.0049 119.12 25.1497 119.299 25.1208Z" fill="black"/>
<path d="M120.156 6.3353C120.064 6.25422 119.965 6.17315 119.861 6.10365V5.46665H121.708C121.98 5.46665 122.206 5.24081 122.206 4.96863C122.206 4.69067 121.98 4.47061 121.708 4.47061H119.861V0.22005C119.861 0.0984401 119.762 0 119.641 0H117.811C117.689 0 117.591 0.0984401 117.591 0.22005V4.47061H115.743C115.471 4.47061 115.245 4.69067 115.245 4.96863C115.245 5.24081 115.471 5.46665 115.743 5.46665H117.591V6.06891C117.458 6.14419 117.342 6.23685 117.232 6.3353C117.724 6.30634 118.222 6.28897 118.726 6.28897C119.206 6.29476 119.681 6.31213 120.156 6.3353Z" fill="#EAFC52"/>
<path d="M116.537 7.14022C116.474 7.2213 116.41 7.30816 116.34 7.39503H115.478C115.153 7.39503 114.846 7.55717 114.667 7.82935L113.989 8.84855C113.879 9.0107 113.827 9.2018 113.827 9.39869L113.914 17.3612C113.914 17.5292 113.96 17.6971 114.047 17.8419L114.661 18.8843C114.76 19.0522 114.91 19.1912 115.09 19.2723L118.726 20.9632L122.363 19.2723C122.543 19.1912 122.693 19.0522 122.792 18.8843L123.405 17.8419C123.492 17.6971 123.539 17.5292 123.539 17.3612L123.625 9.40448C123.625 9.196 123.568 8.99912 123.446 8.83118L122.711 7.80039C122.531 7.54559 122.23 7.39503 121.917 7.39503H121.077C120.996 7.29658 120.921 7.20392 120.846 7.11127C120.614 6.82172 120.394 6.55533 120.151 6.32949C119.676 6.30632 119.201 6.28895 118.721 6.28895C118.217 6.28895 117.719 6.30633 117.226 6.33528C116.989 6.56113 116.775 6.8333 116.537 7.14022ZM121.593 8.39686H121.906L122.629 9.40448L122.554 17.3439L121.952 18.3804L118.732 19.8745L115.524 18.3862L114.916 17.3555L114.829 9.40448L115.495 8.39686H115.871C116.173 8.89488 117.522 9.35236 118.732 9.35236C119.919 9.35236 121.286 8.88909 121.593 8.39686Z" fill="black"/>
<path d="M120.336 42.6503L120.857 41.1446C120.88 41.0809 120.875 41.0056 120.851 40.9419L120.255 39.5926C120.209 39.4942 120.11 39.4247 120 39.4247H117.423C117.307 39.4247 117.209 39.4942 117.163 39.5984L116.612 40.9361C116.583 41.0056 116.583 41.0809 116.612 41.1504L118.523 45.8005C118.616 46.0322 118.946 46.0322 119.039 45.8005L120.336 42.6676C120.33 42.656 120.336 42.6503 120.336 42.6503Z" fill="black"/>
<path d="M119.751 14.5638C119.797 14.5638 119.844 14.558 119.89 14.5406L122.004 13.7531C122.212 13.6778 122.316 13.4462 122.235 13.2377C122.16 13.0292 121.928 12.925 121.72 13.006L119.606 13.7936C119.398 13.8689 119.293 14.1005 119.374 14.309C119.438 14.4654 119.595 14.5638 119.751 14.5638Z" fill="black"/>
<path d="M115.223 13.2384C115.147 13.4469 115.251 13.6727 115.454 13.7538L117.568 14.5414C117.614 14.5588 117.661 14.5645 117.707 14.5645C117.869 14.5645 118.02 14.4661 118.077 14.3039C118.153 14.0955 118.049 13.8696 117.846 13.7886L115.732 13.001C115.529 12.9257 115.304 13.0299 115.223 13.2384Z" fill="black"/>
</svg>
