<svg width="138" height="123" viewBox="0 0 138 123" fill="none" xmlns="http://www.w3.org/2000/svg">
<path d="M58.4886 70.2281C58.8685 70.7908 59.746 70.4375 59.6282 69.757L55.1094 44.0547C55.057 43.7537 54.795 43.5312 54.4938 43.5312H41.409C40.8982 43.5312 40.5969 44.094 40.8851 44.5128L58.4886 70.2281Z" fill="white"/>
<path d="M28.1277 92.9866C28.1801 93.1829 28.1277 93.3923 27.9967 93.5494L24.159 98.025C23.8839 98.3391 23.9887 98.8364 24.3817 99.0065L50.6037 110.928C50.8918 111.059 51.2454 110.955 51.4026 110.68L64.9459 87.8174C65.1423 87.4902 64.9982 87.0584 64.6315 86.9144L40.7671 77.4527C40.4528 77.3219 40.2956 76.9685 40.4004 76.6545L46.9755 58.3985C47.041 58.2022 47.0148 57.9928 46.897 57.8227L37.532 44.4874C37.2438 44.0817 36.6282 44.1471 36.4317 44.6052L23.6875 75.2542C23.6351 75.385 23.622 75.5159 23.6613 75.6468L28.1277 92.9866Z" fill="white"/>
<path d="M63.4399 97.0177C63.2304 96.5465 62.5755 96.5073 62.3135 96.9522L52.5032 113.991C52.346 114.279 51.9924 114.384 51.6911 114.253L20.4395 99.7397C20.0859 99.5827 19.968 99.1508 20.1776 98.8236L24.7225 91.7961C24.8273 91.626 24.8535 91.4166 24.7749 91.2203L21.8541 83.8001C21.71 83.4337 21.2778 83.2897 20.9372 83.4991L0.530703 95.9707C0.190158 96.1801 0.124665 96.6512 0.399721 96.9392L21.9327 119.932C22.0375 120.037 22.1815 120.116 22.3256 120.129L48.1285 122.877C48.2987 122.89 48.469 122.838 48.6 122.733L67.3169 107.134C67.5265 106.95 67.605 106.663 67.4872 106.401L63.4399 97.0177Z" fill="white"/>
<path d="M79.1834 70.1115L96.787 44.4092C97.0751 43.9905 96.7739 43.4277 96.2631 43.4277H83.1783C82.877 43.4277 82.615 43.6502 82.5627 43.9512L78.0439 69.6535C77.926 70.3078 78.8036 70.6611 79.1834 70.1115Z" fill="white"/>
<path d="M90.6835 58.2678L97.2586 76.5237C97.3765 76.8378 97.2193 77.1911 96.8919 77.322L73.0275 86.7837C72.6607 86.9276 72.5167 87.3595 72.7131 87.6867L86.2695 110.549C86.4397 110.824 86.7803 110.929 87.0684 110.798L113.29 98.8758C113.67 98.7057 113.775 98.2084 113.513 97.8943L109.675 93.4186C109.544 93.2616 109.492 93.0522 109.544 92.8559L114.011 75.516C114.05 75.3852 114.037 75.2412 113.985 75.1234L101.227 44.4744C101.031 44.0164 100.415 43.951 100.127 44.3566L90.762 57.692C90.6442 57.8621 90.6049 58.0715 90.6835 58.2678Z" fill="white"/>
<path d="M137.155 95.8392L116.749 83.3676C116.408 83.1582 115.976 83.3153 115.832 83.6686L112.911 91.0887C112.832 91.272 112.858 91.4944 112.963 91.6646L117.508 98.6921C117.718 99.0193 117.587 99.4381 117.246 99.6082L85.9815 114.121C85.6803 114.265 85.3266 114.147 85.1695 113.86L75.3591 96.8207C75.0972 96.3758 74.4423 96.415 74.2327 96.8861L70.1986 106.269C70.0938 106.531 70.1593 106.819 70.3688 107.002L89.0857 122.601C89.2167 122.706 89.387 122.759 89.5573 122.745L115.36 119.997C115.504 119.984 115.648 119.906 115.753 119.801L137.286 96.8076C137.561 96.5197 137.496 96.0486 137.155 95.8392Z" fill="white"/>
<path d="M48.7309 63.044L44.6574 75.1361C44.5527 75.4501 44.7098 75.8035 45.0242 75.9213L67.9717 85.0558C68.3909 85.2259 68.8362 84.9118 68.8362 84.4669C68.8362 84.9118 69.2815 85.2128 69.7006 85.0558L92.6482 75.9213C92.9625 75.8035 93.1197 75.4501 93.0149 75.1361L88.9415 63.044C88.7843 62.5597 88.1556 62.4551 87.8412 62.8607L77.245 76.641C76.8783 77.1121 76.1186 76.8635 76.1186 76.2615L75.9745 58.7123C75.9745 58.3197 75.6209 58.0318 75.2411 58.0972L69.3601 59.118C69.0588 59.1703 68.8362 59.432 68.8362 59.733C68.8362 59.432 68.6135 59.1703 68.3123 59.118L62.4313 58.0972C62.0515 58.0318 61.6978 58.3197 61.6978 58.7123L61.5537 76.2615C61.5537 76.8635 60.7941 77.1121 60.4273 76.641L49.8311 62.8607C49.5168 62.4551 48.8881 62.5597 48.7309 63.044Z" fill="white"/>
<path d="M62.3527 56.2528L67.4478 57.038C67.8538 57.1034 68.2075 56.7763 68.1682 56.3706L67.7752 50.8742C67.7622 50.6779 67.6574 50.4947 67.4871 50.39L59.2485 44.9852C58.7508 44.658 58.109 45.1553 58.3055 45.718L61.8419 55.8471C61.9336 56.0565 62.117 56.2135 62.3527 56.2528Z" fill="white"/>
<path d="M70.1328 57.0372L75.2278 56.252C75.4636 56.2127 75.647 56.0557 75.7256 55.8332L79.262 45.7041C79.4585 45.1414 78.8298 44.6441 78.319 44.9712L70.0804 50.376C69.9101 50.4807 69.8053 50.664 69.7922 50.8603L69.3993 56.3567C69.3731 56.7754 69.7267 57.1026 70.1328 57.0372Z" fill="white"/>
<path d="M58.253 40.6006L59.6414 42.9562C59.864 43.3357 60.2046 43.6498 60.6106 43.833L68.8361 47.6543L77.0616 43.833C77.4676 43.6498 77.8082 43.3357 78.0308 42.9562L79.4192 40.6006C79.6157 40.2734 79.7205 39.8939 79.7205 39.5144L79.9169 21.5333C79.9169 21.0622 79.7859 20.6173 79.5109 20.2377L77.8475 17.9083C77.4414 17.3325 76.7603 16.9922 76.053 16.9922H74.1539C73.9705 16.7698 73.8002 16.5604 73.6299 16.351C72.9096 15.448 72.2416 14.6235 71.3902 14.0739V12.6344H75.5684C76.184 12.6344 76.6949 12.1371 76.6949 11.5089C76.6949 10.8938 76.1971 10.3835 75.5684 10.3835H71.3902V0.76475C71.3902 0.48993 71.1675 0.267456 70.8925 0.267456H66.7535C66.4785 0.267456 66.2558 0.48993 66.2558 0.76475V10.3704H62.0776C61.462 10.3704 60.9512 10.8677 60.9512 11.4958C60.9512 12.1109 61.4489 12.6213 62.0776 12.6213H66.2558V13.9823C65.2997 14.5189 64.6448 15.3695 63.872 16.3902C63.7279 16.5735 63.5838 16.7698 63.4267 16.9661H61.4751C60.7416 16.9661 60.0474 17.3325 59.6414 17.9476L58.1089 20.2508C57.8601 20.6173 57.7422 21.0491 57.7422 21.4941L57.9387 39.4882C57.9518 39.8939 58.0565 40.2734 58.253 40.6006ZM61.5144 19.2301H62.3657C63.0468 20.3555 66.0986 21.3894 68.8361 21.3894C71.5343 21.3894 74.6254 20.3424 75.3196 19.2301H76.0269L77.6641 21.5071L77.4807 39.4621L76.1185 41.8046L68.8361 45.181L61.5799 41.8177L60.2046 39.4882L60.0081 21.5202L61.5144 19.2301Z" fill="white"/>
<path d="M72.4777 96.6383L73.6565 93.2358C73.7089 93.0918 73.6958 92.9217 73.6434 92.7777L72.2943 89.7155C72.1895 89.493 71.9668 89.3359 71.718 89.3359H65.8894C65.6275 89.3359 65.4048 89.493 65.3 89.7285L64.0557 92.7516C63.9902 92.9086 63.9902 93.0787 64.0557 93.2358L68.378 103.744C68.5876 104.268 69.3342 104.268 69.5437 103.744L72.4777 96.6645C72.4646 96.6645 72.4777 96.6514 72.4777 96.6383Z" fill="white"/>
<path d="M71.1545 33.1802C71.2592 33.1802 71.364 33.1671 71.4688 33.1278L76.2495 31.348C76.7211 31.1779 76.9568 30.6544 76.7735 30.1833C76.6032 29.7122 76.0793 29.4766 75.6077 29.6598L70.827 31.4396C70.3555 31.6098 70.1197 32.1332 70.3031 32.6043C70.4472 32.9577 70.7877 33.1802 71.1545 33.1802Z" fill="white"/>
<path d="M61.4491 31.3347L66.2298 33.1145C66.3346 33.1538 66.4394 33.1669 66.5441 33.1669C66.9109 33.1669 67.2514 32.9444 67.3824 32.578C67.5527 32.1068 67.3169 31.5965 66.8585 31.4132L62.0778 29.6335C61.6062 29.4633 61.0954 29.6989 60.912 30.1569C60.7418 30.6411 60.9775 31.1646 61.4491 31.3347Z" fill="white"/>
</svg>
