<svg width="631" height="91" viewBox="0 0 631 91" fill="none" xmlns="http://www.w3.org/2000/svg">
<path d="M0.832058 87.503V69.3797C14.0119 76.762 34.7135 84.0113 48.7586 84.0113C55.7812 84.0113 64.135 82.1824 64.135 77.5934C64.135 62.5959 0 49.4274 0 27.7791C0 7.95984 25.2946 1.30908 52.1534 1.30908C62.3045 1.30908 72.1228 2.27345 79.6113 3.83638V21.993C67.6297 14.012 47.8933 6.86246 35.9449 6.86246C29.6545 6.86246 21.7999 8.79119 21.7999 13.5132C21.7999 25.3516 82.5402 34.9287 82.5402 59.9356C82.5402 81.4508 57.9778 90.1633 29.4216 90.1633C20.0692 90.1633 10.251 89.1989 0.832058 87.503Z" fill="white"/>
<path d="M92.1924 88.7004V3.83667H122.446V48.0642C125.708 43.841 130.667 42.6439 136.225 42.6439H158.99V3.83667H189.244V88.7004H158.99V46.2686H136.724C126.54 46.2686 122.446 49.5274 122.446 63.1947V88.7004H92.1924Z" fill="white"/>
<path d="M198.895 46.1685C198.895 16.3066 226.12 1.30908 253.445 1.30908C280.537 1.30908 307.762 16.1736 307.762 46.0355C307.762 75.7644 280.537 90.5291 253.312 90.5291C226.087 90.5291 198.895 75.7644 198.895 46.1685ZM279.605 55.8453C279.605 32.6342 267.623 4.93376 246.689 4.93376C233.01 4.93376 226.619 19.7982 226.619 36.8574C226.619 59.9356 238.335 86.9044 259.769 86.9044C273.315 86.9044 279.605 72.5055 279.605 55.8453Z" fill="white"/>
<path d="M316.281 46.5351C316.281 14.8442 346.901 0.944092 382.347 0.944092C391.899 0.944092 401.817 1.90846 411.502 3.83718V21.9938C398.555 10.621 386.074 5.20058 375.69 5.20058C358.25 5.20058 346.302 19.932 346.302 46.0695C346.302 73.77 358.883 87.404 371.097 87.404C382.48 87.404 393.463 74.4683 392.997 53.4519H375.091V49.8272H423.251C424.682 77.2616 398.921 90.5631 372.295 90.5631C344.837 90.5299 316.281 76.131 316.281 46.5351Z" fill="white"/>
<path d="M432.936 56.1782V3.83667H463.19V69.4797C463.19 81.2183 471.411 87.7361 479.765 87.7361C487.985 87.7361 496.206 81.2183 496.206 69.4797V3.83667H526.46V56.1782C526.46 81.5841 503.096 90.6291 479.765 90.6291C456.267 90.6624 432.936 81.5841 432.936 56.1782Z" fill="white"/>
<path d="M536.145 88.7004V3.83667H567.231L627.372 83.3798V3.83667H631V88.7004H598.35L539.773 11.9173V88.7004H536.145Z" fill="white"/>
</svg>
